#!OML:ASF E:\Steps\Project 1\Capture day 1\Session 2\Subject.ASF
:FULLY-SPECIFIED
:DEGREES
287
root 9.08385 16.8819 28.1985 -150.185 -1.40648 177.651
lowerback -22.3377 -1.96135 -4.57244
upperback -1.99207 -1.84409 -1.13801
thorax 10.4045 -1.26087 0.74601
lowerneck 5.37625 -4.832 4.48115
upperneck -6.2325 -6.35183 -4.13884
head -3.28314 -3.08804 -1.85173
rclavicle 1.78906e-015 1.63003e-014
rhumerus -44.2661 -5.74573 -83.7741
rradius 42.2049
rwrist -5.12828
rhand -7.49604 -51.7335
rfingers 7.12502
rthumb 18.3937 -80.8839
lclavicle 1.78906e-015 1.63003e-014
lhumerus -37.6735 0.424235 80.0878
lradius 22.9273
lwrist -3.87865
lhand -20.2405 -14.3105
lfingers 7.12502
lthumb 6.10767 15.5815
rfemur -33.8861 8.82985 16.6827
rtibia 35.2394
rfoot -7.24148 -6.23318
rtoes -34.3297
lfemur -36.9673 -8.14872 -19.7427
ltibia 40.0339
lfoot 5.95106 2.765
ltoes -27.076
288
root 9.08132 17.0824 28.0863 -150.303 -1.57095 177.726
lowerback -22.8645 -1.99097 -4.44027
upperback -2.07245 -1.91857 -1.04664
thorax 10.6026 -1.30165 0.732288
lowerneck 5.43375 -4.70484 4.307
upperneck -5.34593 -6.18763 -4.19813
head -2.97662 -3.00865 -1.85063
rclavicle -9.74045e-015 -4.77083e-015
rhumerus -44.4225 -5.99288 -83.4909
rradius 42.3152
rwrist -4.71878
rhand -7.24014 -50.8879
rfingers 7.12502
rthumb 18.6398 -80.0148
lclavicle -9.74045e-015 -4.77083e-015
lhumerus -37.8454 0.283743 80.1887
lradius 22.8816
lwrist -4.20992
lhand -20.0458 -14.5916
lfingers 7.12502
lthumb 6.2956 15.2948
rfemur -33.5315 8.29253 16.7769
rtibia 34.4495
rfoot -3.60617 -5.65907
rtoes -33.9264
lfemur -36.7388 -7.53488 -19.775
ltibia 39.2552
lfoot 9.32885 3.0388
ltoes -33.3547
289
root 9.0776 17.2786 27.9754 -150.466 -1.7867 177.778
lowerback -23.3931 -2.04846 -4.3108
upperback -2.05667 -2.01484 -0.954353
thorax 10.9114 -1.34913 0.71132
lowerneck 5.36629 -4.5411 4.14839
upperneck -4.45229 -5.97254 -4.32602
head -2.64986 -2.90111 -1.87949
rclavicle -1.30204e-014 -5.56597e-015
rhumerus -44.494 -6.0006 -83.3558
rradius 42.5905
rwrist -4.46597
rhand -7.40243 -51.4909
rfingers 7.12502
rthumb 18.4837 -80.6328
lclavicle -1.30204e-014 -5.56597e-015
lhumerus -37.9925 0.0585807 80.3524
lradius 23.0484
lwrist -4.5521
lhand -20.165 -14.8582
lfingers 7.12502
lthumb 6.1805 15.0317
rfemur -33.1872 7.7044 16.9136
rtibia 33.7671
rfoot -0.116322 -5.11928
rtoes -34.4165
lfemur -36.5578 -7.17081 -19.7928
ltibia 38.6417
lfoot 12.5086 3.69659
ltoes -31.9153
290
root 9.07118 17.4666 27.8701 -150.611 -1.96019 177.854
lowerback -23.8471 -2.09409 -4.16059
upperback -2.06383 -2.11244 -0.817864
thorax 11.1545 -1.39594 0.729971
lowerneck 5.2526 -4.45548 3.98077
upperneck -3.78493 -5.85922 -4.37515
head -2.39526 -2.84493 -1.87536
rclavicle 7.65321e-015 1.15295e-014
rhumerus -44.7161 -5.67834 -83.2216
rradius 43.0727
rwrist -4.46171
rhand -7.58958 -52.2669
rfingers 7.12502
rthumb 18.3037 -81.4258
lclavicle 7.65321e-015 1.15295e-014
lhumerus -38.0146 0.042171 80.5452
lradius 23.0572
lwrist -4.94152
lhand -20.1516 -14.9908
lfingers 7.12502
lthumb 6.19348 14.8987
rfemur -32.9839 7.12494 17.0502
rtibia 33.2813
rfoot 3.27789 -4.83214
rtoes -32.8217
lfemur -36.5216 -6.91324 -19.7984
ltibia 38.2463
lfoot 15.5706 4.54585
ltoes -32.107
291
root 9.06005 17.6451 27.763 -150.848 -1.97631 177.817
lowerback -24.1938 -2.08144 -4.08425
upperback -2.06078 -2.11081 -0.763735
thorax 11.3451 -1.39709 0.735005
lowerneck 4.90451 -4.50797 3.97062
upperneck -3.24647 -5.92656 -4.36393
head -2.15519 -2.8855 -1.8755
rclavicle 2.38542e-014 -1.07344e-014
rhumerus -45.0113 -5.48881 -82.9883
rradius 43.5637
rwrist -4.33414
rhand -7.30376 -52.1636
rfingers 7.12502
rthumb 18.5787 -81.2964
lclavicle 2.38542e-014 -1.07344e-014
lhumerus -38.0455 0.0742345 80.6829
lradius 23.078
lwrist -5.32457
lhand -19.7859 -15.4649
lfingers 7.12502
lthumb 6.54649 14.4139
rfemur -32.8563 6.65962 16.9473
rtibia 33.0863
rfoot 6.09658 -5.09246
rtoes -30.5442
lfemur -36.3447 -6.66287 -20.0281
ltibia 37.8818
lfoot 17.9217 5.52048
ltoes -32.2424
292
root 9.04863 17.8159 27.6516 -151.253 -1.91874 177.766
lowerback -24.4072 -2.0283 -4.02458
upperback -1.98202 -2.03789 -0.759031
thorax 11.5457 -1.36 0.721857
lowerneck 4.68696 -4.45963 3.94257
upperneck -2.49133 -5.85108 -4.45623
head -1.86735 -2.84998 -1.91133
rclavicle -2.3556e-014 -2.5842e-014
rhumerus -45.1317 -5.4533 -82.8114
rradius 43.9229
rwrist -4.05959
rhand -6.81428 -52.2046
rfingers 7.12502
rthumb 19.0494 -81.2917
lclavicle -2.3556e-014 -2.5842e-014
lhumerus -38.128 -0.0405539 80.8215
lradius 23.2746
lwrist -5.55036
lhand -19.5028 -16.0083
lfingers 7.12502
lthumb 6.81979 13.8619
rfemur -32.593 6.37793 16.8118
rtibia 32.9354
rfoot 8.36605 -5.51736
rtoes -30.3369
lfemur -35.9461 -6.41012 -20.333
ltibia 37.5144
lfoot 19.4698 6.70156
ltoes -33.3041
